<svg xmlns="http://www.w3.org/2000/svg" width="74" height="74" viewBox="0 0 74 74">
  <defs>
    <style>
      .cls-1 {
        fill: #dedede;
        fill-rule: evenodd;
      }
    </style>
  </defs>
  <path class="cls-1" d="M59.054,50.7a28.335,28.335,0,1,0-44.111-.005,28.475,28.475,0,0,0-4.874,8.969,7.285,7.285,0,0,0,1.043,6.612A7.581,7.581,0,0,0,17.238,69.4H56.764a7.56,7.56,0,0,0,6.115-3.128,7.268,7.268,0,0,0,1.044-6.612,28.416,28.416,0,0,0-4.868-8.96h0ZM37,6.4A26.534,26.534,0,1,1,10.466,32.936,26.567,26.567,0,0,1,37,6.4ZM61.422,65.218A5.718,5.718,0,0,1,56.765,67.6H17.238a5.743,5.743,0,0,1-4.669-2.379,5.508,5.508,0,0,1-.79-5A26.377,26.377,0,0,1,16.153,52.1a28.286,28.286,0,0,0,41.7,0,26.26,26.26,0,0,1,4.374,8.117,5.526,5.526,0,0,1-.8,5h0Zm-24.4-51.424a2.946,2.946,0,1,1,2.947-2.945A2.95,2.95,0,0,1,37.026,13.794Zm0-4.092a1.146,1.146,0,1,0,1.148,1.148A1.149,1.149,0,0,0,37.026,9.7ZM37,49.634a16.7,16.7,0,1,1,16.7-16.7A16.717,16.717,0,0,1,37,49.634h0Zm0-31.6a14.9,14.9,0,1,0,14.9,14.9A14.916,14.916,0,0,0,37,18.038Zm0,26.55A11.653,11.653,0,1,1,48.654,32.935,11.668,11.668,0,0,1,37,44.588Zm0-21.5a9.853,9.853,0,1,0,9.853,9.853A9.862,9.862,0,0,0,37,23.084h0Z"/>
</svg>
