<svg xmlns="http://www.w3.org/2000/svg" width="74" height="74" viewBox="0 0 74 74">
  <defs>
    <style>
      .cls-1 {
        fill: #dedede;
        fill-rule: evenodd;
      }
    </style>
  </defs>
  <path id="telefoon_copy_2" data-name="telefoon copy 2" class="cls-1" d="M63.331,51.305L58.07,38.362a4.279,4.279,0,0,0-4.823-2.656h0a4.171,4.171,0,0,0-2.767,2.135,4.217,4.217,0,0,0-.287.7,4.174,4.174,0,0,0-1.243-.42l0-27.4a6.114,6.114,0,0,0-6.1-6.1H17.082A5.39,5.39,0,0,0,11.7,10.01v44.9a6.121,6.121,0,0,0,6.112,6.112h9.143a4.461,4.461,0,0,0,1.234,1.448l7.5,5.649a16.328,16.328,0,0,0,9.8,3.256,16.145,16.145,0,0,0,6.089-1.185l4.56-1.854a13.066,13.066,0,0,0,7.19-17.028h0Zm-49.774,3.6V10.01a3.528,3.528,0,0,1,3.526-3.526H42.853A4.256,4.256,0,0,1,47.1,10.728V38.205a4.263,4.263,0,0,0-.458.127,4.091,4.091,0,0,0-1.721,1.35V10.917A1.889,1.889,0,0,0,43.03,9.028H36.877a0.919,0.919,0,0,0-.834.533l-1.1,2.358a1.05,1.05,0,0,1-.95.605H26.645a1.053,1.053,0,0,1-.95-0.605L24.611,9.561a0.936,0.936,0,0,0-.846-0.533H17.624a1.889,1.889,0,0,0-1.889,1.889V54.729a1.884,1.884,0,0,0,1.877,1.877h9.438a4.4,4.4,0,0,0-.617,2.555l-8.621,0a4.258,4.258,0,0,1-4.255-4.253h0ZM38.812,42.261l-2.923-7.2a4.285,4.285,0,0,0-4.826-2.657,4.148,4.148,0,0,0-2.929,5.605l6.8,16.735-2.471,0a4.729,4.729,0,0,0-3.178,0l-11.7-.014V10.873h5.591L24.021,12.7a2.9,2.9,0,0,0,2.628,1.68H34A2.924,2.924,0,0,0,36.64,12.7l0.834-1.825h5.559a0.044,0.044,0,0,1,.032.04l-0.02,29.641a4.071,4.071,0,0,0-4.232,1.706h0ZM61.556,60.587a11.162,11.162,0,0,1-6.112,6.031l-4.56,1.854A14.471,14.471,0,0,1,36.81,66.635l-7.5-5.649a2.616,2.616,0,0,1-.382-3.827,2.57,2.57,0,0,1,1.953-.831,3.023,3.023,0,0,1,1.327.307l4.681,2.283a0.927,0.927,0,0,0,1.266-1.182l-8.3-20.423a2.294,2.294,0,0,1,1.628-3.1,2.4,2.4,0,0,1,2.688,1.547l4.224,10.394v0l1.831,4.5a0.928,0.928,0,0,0,.86.577,0.89,0.89,0,0,0,.351-0.07,0.925,0.925,0,0,0,.51-1.208l-1.828-4.5-0.009,0a2.292,2.292,0,0,1,4.247-1.727v0l1.831,4.5a0.924,0.924,0,0,0,.858.576,0.945,0.945,0,0,0,.351-0.069,0.925,0.925,0,0,0,.51-1.208l-1.831-4.5a2.292,2.292,0,0,1,4.25-1.721l1.828,4.5a0.924,0.924,0,0,0,.858.576,0.943,0.943,0,0,0,.351-0.069,0.925,0.925,0,0,0,.51-1.208l-1.828-4.5v0a2.293,2.293,0,0,1,1.628-3.1,2.417,2.417,0,0,1,2.688,1.547L61.619,52a11.161,11.161,0,0,1-.064,8.589h0Z"/>
</svg>
