<svg xmlns="http://www.w3.org/2000/svg" width="74" height="74" viewBox="0 0 74 74">
  <defs>
    <style>
      .cls-1 {
        fill: #dedede;
        fill-rule: evenodd;
      }
    </style>
  </defs>
  <path id="beeldbellen" class="cls-1" d="M70.63,64.817a8.464,8.464,0,0,1-4.641,4.576L63.019,70.6a10.519,10.519,0,0,1-3.967.772,10.637,10.637,0,0,1-6.384-2.121l-4.887-3.68a2.906,2.906,0,0,1-.8-0.944H41.021a3.987,3.987,0,0,1-3.982-3.982V31.4a3.511,3.511,0,0,1,3.506-3.506H57.331a3.983,3.983,0,0,1,3.974,3.974l0,17.846a2.716,2.716,0,0,1,.809.274,2.758,2.758,0,0,1,.187-0.459,2.718,2.718,0,0,1,1.8-1.391h0a2.787,2.787,0,0,1,3.142,1.731L70.673,58.3h0A8.453,8.453,0,0,1,70.63,64.817ZM48.494,60.539a3.081,3.081,0,0,1,2.07,0l1.61,0-4.429-10.9a2.7,2.7,0,0,1,.106-2.261l1.8-1.391A2.792,2.792,0,0,1,52.8,47.72l1.9,4.689h0A2.652,2.652,0,0,1,57.458,51.3l0.013-19.309a0.029,0.029,0,0,0-.021-0.026H53.829l-0.544,1.189a1.9,1.9,0,0,1-1.719,1.094H46.777a1.886,1.886,0,0,1-1.712-1.094l-0.551-1.189H40.872V60.529ZM60.1,31.868A2.772,2.772,0,0,0,57.333,29.1H40.545a2.3,2.3,0,0,0-2.3,2.3V60.647h0a2.774,2.774,0,0,0,2.772,2.77l5.616,0a2.865,2.865,0,0,1,.4-1.665H40.891a1.227,1.227,0,0,1-1.223-1.223V31.991a1.231,1.231,0,0,1,1.23-1.23h4a0.61,0.61,0,0,1,.551.347l0.706,1.536a0.686,0.686,0,0,0,.619.394h4.79a0.684,0.684,0,0,0,.619-0.394L52.9,31.108a0.6,0.6,0,0,1,.543-0.347h4.008a1.231,1.231,0,0,1,1.23,1.23V50.73A2.666,2.666,0,0,1,59.8,49.85a2.8,2.8,0,0,1,.3-0.083v-17.9Zm9.46,26.884L66.131,50.32a1.575,1.575,0,0,0-1.751-1.008,1.493,1.493,0,0,0-1.061,2.019v0l1.191,2.935a0.6,0.6,0,0,1-.332.787,0.615,0.615,0,0,1-.228.045,0.6,0.6,0,0,1-.558-0.376L62.2,51.79a1.493,1.493,0,0,0-2.768,1.121l1.193,2.935a0.6,0.6,0,0,1-.332.787,0.615,0.615,0,0,1-.228.045,0.6,0.6,0,0,1-.559-0.376l-1.193-2.934v0a1.493,1.493,0,0,0-2.767,1.125l0.006,0,1.191,2.935a0.6,0.6,0,0,1-.332.787,0.58,0.58,0,0,1-.228.045,0.6,0.6,0,0,1-.56-0.375l-1.193-2.934v0l-2.751-6.771a1.567,1.567,0,0,0-1.751-1.008,1.494,1.494,0,0,0-1.061,2.021l5.405,13.3a0.6,0.6,0,0,1-.825.77L50.4,61.773a1.969,1.969,0,0,0-.864-0.2,1.674,1.674,0,0,0-1.272.542,1.7,1.7,0,0,0,.249,2.493l4.887,3.68a9.427,9.427,0,0,0,9.168,1.2l2.97-1.208a7.272,7.272,0,0,0,3.982-3.929h0A7.271,7.271,0,0,0,69.558,58.752ZM66.1,45.639h0a1.086,1.086,0,0,1-.266.025A6.252,6.252,0,0,0,67.6,41.317V12.683A6.29,6.29,0,0,0,61.317,6.4H12.683A6.29,6.29,0,0,0,6.4,12.683V41.317A6.29,6.29,0,0,0,12.683,47.6H35.039v1.8h-7.5l-8.849,8.433h-3.1l9-8.433h-11.9A8.093,8.093,0,0,1,4.6,41.317V12.683A8.091,8.091,0,0,1,12.683,4.6H61.317A8.091,8.091,0,0,1,69.4,12.683V41.317a8.03,8.03,0,0,1-1.569,4.765A2.165,2.165,0,0,0,66.1,45.639Z"/>
</svg>
